<svg xmlns="http://www.w3.org/2000/svg" width="320" height="320" viewBox="0 0 320 320" role="img">
  <defs>
    <radialGradient id="g_avatar_spiral" cx="50%" cy="45%" r="70%">
      <stop offset="0%" stop-color="#f7f9fc"/>
      <stop offset="100%" stop-color="#eaf2ff"/>
    </radialGradient>
  </defs>
  <rect width="100%" height="100%" fill="url(#g_avatar_spiral)"/>
  <g stroke="#c8a94d" stroke-width="8" stroke-linecap="round" stroke-linejoin="round" fill="none" transform="translate(0,0)">

    <polyline points="160.00,160.00 160.75,160.09 161.47,160.35 162.13,160.77 162.70,161.36 163.16,162.07 163.48,162.91 163.64,163.85 163.62,164.85 163.41,165.89 163.01,166.94 162.40,167.96 161.60,168.93 160.60,169.81 159.41,170.57 158.06,171.18 156.57,171.60 154.95,171.82 153.23,171.81 151.46,171.56 149.66,171.04 147.88,170.26 146.14,169.20 144.49,167.88 142.97,166.29 141.62,164.45 140.48,162.38 139.58,160.11 138.95,157.66 138.63,155.06 138.63,152.37 138.99,149.60 139.70,146.83 140.78,144.08 142.23,141.41 144.05,138.88 146.22,136.52 148.73,134.39 151.55,132.53 154.66,130.99 158.00,129.81 161.55,129.03 165.26,128.67 169.06,128.77 172.92,129.33 176.76,130.38 180.52,131.91 184.15,133.92 187.59,136.41 190.77,139.34 193.63,142.70 196.11,146.45 198.17,150.54 199.76,154.93 200.84,159.57 201.36,164.38 201.32,169.32 200.67,174.29 199.42,179.24 197.56,184.09 195.10,188.76 192.06,193.18 188.46,197.27 184.33,200.97 179.73,204.20 174.70,206.91 169.30,209.04 163.61,210.54 157.69,211.38 151.63,211.51 145.51,210.92 139.42,209.60 133.44,207.54 127.67,204.75 122.19,201.26 117.09,197.09 112.45,192.30 108.36,186.92 104.88,181.02 102.08,174.68 100.02,167.96 98.75,160.97 98.30,153.79 98.69,146.52 99.95,139.26 102.08,132.11 105.06,125.18 108.88,118.57 113.50,112.38 118.87,106.72 124.93,101.66 131.62,97.30 138.85,93.71 146.53,90.97 154.56,89.12 162.84,88.21 171.26,88.27 179.70,89.33 188.05,91.39 196.17,94.44 203.97,98.46 211.31,103.41 218.09,109.24 224.21,115.89 229.56,123.28 234.05,131.31 237.61,139.90 240.16,148.93 241.66,158.28 242.06,167.82 241.34,177.44 239.49,186.99 236.51,196.35 232.42,205.37 227.27,213.93 221.09,221.91 213.97,229.16 205.99,235.60 197.23,241.11 187.81,245.60"/>
</g>
</svg>
